<svg xmlns="http://www.w3.org/2000/svg" width="1340" height="1680"
viewBox="0 0 1340 1680" role="img" aria-labelledby="title desc">
  <title id="title">Airbnb Business Agent system architecture</title>
  <desc id="desc">A direct-endpoint multi-agent architecture where each console calls its dedicated agent, with shared LLM infrastructure and domain-specific data integrations.</desc>
  <defs>
    <linearGradient id="bgGradient" x1="0%" y1="0%" x2="100%" y2="100%">
      <stop offset="0%" stop-color="#f8fbff"/>
      <stop offset="55%" stop-color="#f7f7fb"/>
      <stop offset="100%" stop-color="#eef6ff"/>
    </linearGradient>
    <linearGradient id="haloGradient" x1="0%" y1="0%" x2="0%" y2="100%">
      <stop offset="0%" stop-color="#dbeafe" stop-opacity="0.76"/>
      <stop offset="100%" stop-color="#dbeafe" stop-opacity="0"/>
    </linearGradient>
    <filter id="softShadow" x="-20%" y="-20%" width="140%" height="140%">
      <feDropShadow dx="0" dy="14" stdDeviation="18" flood-color="#94a3b8" flood-opacity="0.18"/>
    </filter>
    <marker id="arrowControl" viewBox="0 0 10 10" refX="8" refY="5" markerWidth="8" markerHeight="8" orient="auto-start-reverse">
      <path d="M 0 0 L 10 5 L 0 10 z" fill="#2563eb"/>
    </marker>
    <marker id="arrowData" viewBox="0 0 10 10" refX="8" refY="5" markerWidth="8" markerHeight="8" orient="auto-start-reverse">
      <path d="M 0 0 L 10 5 L 0 10 z" fill="#64748b"/>
    </marker>
    <marker id="arrowSchedule" viewBox="0 0 10 10" refX="8" refY="5" markerWidth="8" markerHeight="8" orient="auto-start-reverse">
      <path d="M 0 0 L 10 5 L 0 10 z" fill="#16a34a"/>
    </marker>
    <pattern id="dotGrid" width="28" height="28" patternUnits="userSpaceOnUse">
      <circle cx="2" cy="2" r="1.3" fill="#cbd5e1" opacity="0.24"/>
    </pattern>
  </defs>

  <rect width="1340" height="1680" fill="url(#bgGradient)"/>
  <rect width="1340" height="1680" fill="url(#dotGrid)"/>
  <ellipse cx="980" cy="170" rx="360" ry="150" fill="url(#haloGradient)" opacity="0.92"/>

  <g>
    <text x="52" y="74" font-size="38" font-weight="800" fill="#0f172a">Airbnb Business Agent</text>
    <text x="52" y="114" font-size="20" font-weight="500" fill="#475569">
      Direct endpoint flow: page -> agent -> data and operations
    </text>
  </g>

  <g transform="translate(52 140)">
    <rect x="0" y="0" width="640" height="46" rx="18" fill="#ffffff" fill-opacity="0.78" stroke="#dbe4ee"/>
    <circle cx="20" cy="23" r="6" fill="#2563eb"/>
    <text x="36" y="28" font-size="17" font-weight="600" fill="#334155">No router layer. Each console owns its endpoint and talks to one domain agent.</text>
  </g>

  <g transform="translate(932 138)">
    <rect x="0" y="0" width="336" height="62" rx="20" fill="#ffffff" fill-opacity="0.76" stroke="#dbe4ee"/>
    <line x1="22" y1="22" x2="74" y2="22" stroke="#2563eb" stroke-width="4" stroke-linecap="round" marker-end="url(#arrowControl)"/>
    <text x="88" y="27" font-size="15" font-weight="500" fill="#475569">direct request path</text>
    <line x1="22" y1="42" x2="74" y2="42" stroke="#64748b" stroke-width="4" stroke-linecap="round" marker-end="url(#arrowData)"/>
    <text x="88" y="47" font-size="15" font-weight="500" fill="#475569">data dependency / shared service</text>
  </g>

  
    <g>
      <rect x="36" y="214" width="360" height="1290" rx="32"
            fill="#ffffff" fill-opacity="0.62" stroke="#dbe4ee" stroke-width="1.5"/>
      <rect x="60" y="238" width="10" height="48" rx="5" fill="#f59e0b"/>
      <text x="86" y="260" font-size="15" font-weight="800" letter-spacing="2"
            fill="#334155">INTERFACES</text>
      <text x="86" y="286" font-size="16" font-weight="500" fill="#64748b">
        Each page calls its own endpoint directly
      </text>
    </g>
    
    <g>
      <rect x="434" y="214" width="392" height="1290" rx="32"
            fill="#ffffff" fill-opacity="0.62" stroke="#dbe4ee" stroke-width="1.5"/>
      <rect x="458" y="238" width="10" height="48" rx="5" fill="#2563eb"/>
      <text x="484" y="260" font-size="15" font-weight="800" letter-spacing="2"
            fill="#334155">DOMAIN AGENTS</text>
      <text x="484" y="286" font-size="16" font-weight="500" fill="#64748b">
        Five focused agents; no central router
      </text>
    </g>
    
    <g>
      <rect x="864" y="214" width="440" height="1290" rx="32"
            fill="#ffffff" fill-opacity="0.62" stroke="#dbe4ee" stroke-width="1.5"/>
      <rect x="888" y="238" width="10" height="48" rx="5" fill="#0f766e"/>
      <text x="914" y="260" font-size="15" font-weight="800" letter-spacing="2"
            fill="#334155">DATA &amp; OPERATIONS</text>
      <text x="914" y="286" font-size="16" font-weight="500" fill="#64748b">
        Domain data, shared services, and outbound channels
      </text>
    </g>
    

  <g opacity="0.98">
    <polyline points="358,372 480,372" fill="none" stroke="#2563eb" stroke-width="4" stroke-linecap="round" stroke-linejoin="round" marker-end="url(#arrowControl)"/><polyline points="358,592 480,592" fill="none" stroke="#2563eb" stroke-width="4" stroke-linecap="round" stroke-linejoin="round" marker-end="url(#arrowControl)"/><polyline points="358,812 480,812" fill="none" stroke="#2563eb" stroke-width="4" stroke-linecap="round" stroke-linejoin="round" marker-end="url(#arrowControl)"/><polyline points="358,1032 480,1032" fill="none" stroke="#2563eb" stroke-width="4" stroke-linecap="round" stroke-linejoin="round" marker-end="url(#arrowControl)"/><polyline points="358,1252 480,1252" fill="none" stroke="#2563eb" stroke-width="4" stroke-linecap="round" stroke-linejoin="round" marker-end="url(#arrowControl)"/>
    <polyline points="780,372 918,372" fill="none" stroke="#64748b" stroke-width="3" stroke-linecap="round" stroke-linejoin="round" marker-end="url(#arrowData)"/><polyline points="780,592 918,592" fill="none" stroke="#64748b" stroke-width="3" stroke-linecap="round" stroke-linejoin="round" marker-end="url(#arrowData)"/><polyline points="780,812 918,812" fill="none" stroke="#64748b" stroke-width="3" stroke-linecap="round" stroke-linejoin="round" marker-end="url(#arrowData)"/><polyline points="780,1012 918,832" fill="none" stroke="#64748b" stroke-width="3" stroke-linecap="round" stroke-linejoin="round" marker-end="url(#arrowData)"/><polyline points="780,1052 840,1052 840,612 918,612" fill="none" stroke="#64748b" stroke-width="3" stroke-linecap="round" stroke-linejoin="round" marker-end="url(#arrowData)"/><polyline points="780,1252 918,1252" fill="none" stroke="#64748b" stroke-width="3" stroke-linecap="round" stroke-linejoin="round" marker-end="url(#arrowData)"/><polyline points="630,432 630,1352 584,1352 584,1384 630,1384" fill="none" stroke="#64748b" stroke-width="3" stroke-linecap="round" stroke-linejoin="round" marker-end="url(#arrowData)"/><polyline points="630,872 630,1384 630,1384" fill="none" stroke="#64748b" stroke-width="3" stroke-linecap="round" stroke-linejoin="round" marker-end="url(#arrowData)"/><polyline points="630,1092 630,1384 674,1384 630,1384" fill="none" stroke="#64748b" stroke-width="3" stroke-linecap="round" stroke-linejoin="round" marker-end="url(#arrowData)"/><polyline points="630,1312 630,1352 718,1352 718,1384 630,1384" fill="none" stroke="#64748b" stroke-width="3" stroke-linecap="round" stroke-linejoin="round" marker-end="url(#arrowData)"/>
    <polyline points="630,652 630,1352 990,1352 990,1384 1082,1384" fill="none" stroke="#16a34a" stroke-width="4" stroke-linecap="round" stroke-linejoin="round" marker-end="url(#arrowSchedule)"/><polyline points="780,1272 840,1272 840,1464 918,1464" fill="none" stroke="#16a34a" stroke-width="4" stroke-linecap="round" stroke-linejoin="round" marker-end="url(#arrowSchedule)"/>
  </g>

  
    <g>
      <rect x="74" y="318" width="284" height="108" rx="24"
            fill="#fff7ed" stroke="#fb923c" stroke-width="2"
            filter="url(#softShadow)"/>
      <rect x="74" y="318" width="284" height="12" rx="24"
            fill="#f59e0b" opacity="0.95"/>
      <rect x="74" y="330" width="284" height="18"
            fill="#f59e0b" opacity="0.08"/>
      <text x="96" y="364" font-size="22" font-weight="700" fill="#7c2d12">Reviews Console</text><text x="96" y="398" font-size="17" font-weight="500" fill="#475569"><tspan x="96" dy="0">POST /api/execute</tspan><tspan x="96" dy="23">prompt + owner context</tspan></text>
    </g>
    
    <g>
      <rect x="74" y="538" width="284" height="108" rx="24"
            fill="#fff7ed" stroke="#fb923c" stroke-width="2"
            filter="url(#softShadow)"/>
      <rect x="74" y="538" width="284" height="12" rx="24"
            fill="#f59e0b" opacity="0.95"/>
      <rect x="74" y="550" width="284" height="18"
            fill="#f59e0b" opacity="0.08"/>
      <text x="96" y="584" font-size="22" font-weight="700" fill="#7c2d12">Market Watch</text><text x="96" y="618" font-size="17" font-weight="500" fill="#475569"><tspan x="96" dy="0">POST /api/market_watch/run</tspan><tspan x="96" dy="23">manual or autonomous run</tspan></text>
    </g>
    
    <g>
      <rect x="74" y="758" width="284" height="108" rx="24"
            fill="#fff7ed" stroke="#fb923c" stroke-width="2"
            filter="url(#softShadow)"/>
      <rect x="74" y="758" width="284" height="12" rx="24"
            fill="#f59e0b" opacity="0.95"/>
      <rect x="74" y="770" width="284" height="18"
            fill="#f59e0b" opacity="0.08"/>
      <text x="96" y="804" font-size="22" font-weight="700" fill="#7c2d12">Analysis Console</text><text x="96" y="838" font-size="17" font-weight="500" fill="#475569"><tspan x="96" dy="0">POST /api/analysis</tspan><tspan x="96" dy="23">comparison request + filters</tspan></text>
    </g>
    
    <g>
      <rect x="74" y="978" width="284" height="108" rx="24"
            fill="#fff7ed" stroke="#fb923c" stroke-width="2"
            filter="url(#softShadow)"/>
      <rect x="74" y="978" width="284" height="12" rx="24"
            fill="#f59e0b" opacity="0.95"/>
      <rect x="74" y="990" width="284" height="18"
            fill="#f59e0b" opacity="0.08"/>
      <text x="96" y="1024" font-size="22" font-weight="700" fill="#7c2d12">Pricing Console</text><text x="96" y="1058" font-size="17" font-weight="500" fill="#475569"><tspan x="96" dy="0">POST /api/pricing</tspan><tspan x="96" dy="23">property + horizon + mode</tspan></text>
    </g>
    
    <g>
      <rect x="74" y="1198" width="284" height="108" rx="24"
            fill="#fff7ed" stroke="#fb923c" stroke-width="2"
            filter="url(#softShadow)"/>
      <rect x="74" y="1198" width="284" height="12" rx="24"
            fill="#f59e0b" opacity="0.95"/>
      <rect x="74" y="1210" width="284" height="18"
            fill="#f59e0b" opacity="0.08"/>
      <text x="96" y="1244" font-size="22" font-weight="700" fill="#7c2d12">Mail Console</text><text x="96" y="1278" font-size="17" font-weight="500" fill="#475569"><tspan x="96" dy="0">/api/mail/* + SSE</tspan><tspan x="96" dy="23">owner review + live updates</tspan></text>
    </g>
    
    <g>
      <rect x="480" y="312" width="300" height="120" rx="24"
            fill="#eff6ff" stroke="#60a5fa" stroke-width="2"
            filter="url(#softShadow)"/>
      <rect x="480" y="312" width="300" height="12" rx="24"
            fill="#2563eb" opacity="0.95"/>
      <rect x="480" y="324" width="300" height="18"
            fill="#2563eb" opacity="0.08"/>
      <text x="502" y="358" font-size="22" font-weight="700" fill="#0f172a">reviews_agent</text><text x="502" y="392" font-size="17" font-weight="500" fill="#475569"><tspan x="502" dy="0">review Q&amp;A</tspan><tspan x="502" dy="23">retrieval + evidence guardrails</tspan></text>
    </g>
    
    <g>
      <rect x="480" y="532" width="300" height="120" rx="24"
            fill="#eff6ff" stroke="#60a5fa" stroke-width="2"
            filter="url(#softShadow)"/>
      <rect x="480" y="532" width="300" height="12" rx="24"
            fill="#2563eb" opacity="0.95"/>
      <rect x="480" y="544" width="300" height="18"
            fill="#2563eb" opacity="0.08"/>
      <text x="502" y="578" font-size="22" font-weight="700" fill="#0f172a">market_watch_agent</text><text x="502" y="612" font-size="17" font-weight="500" fill="#475569"><tspan x="502" dy="0">demand signal scan</tspan><tspan x="502" dy="23">weather / events / holidays</tspan></text>
    </g>
    
    <g>
      <rect x="480" y="752" width="300" height="120" rx="24"
            fill="#eff6ff" stroke="#60a5fa" stroke-width="2"
            filter="url(#softShadow)"/>
      <rect x="480" y="752" width="300" height="12" rx="24"
            fill="#2563eb" opacity="0.95"/>
      <rect x="480" y="764" width="300" height="18"
            fill="#2563eb" opacity="0.08"/>
      <text x="502" y="798" font-size="22" font-weight="700" fill="#0f172a">analyst_agent</text><text x="502" y="832" font-size="17" font-weight="500" fill="#475569"><tspan x="502" dy="0">neighbor benchmarking</tspan><tspan x="502" dy="23">structured metric comparison</tspan></text>
    </g>
    
    <g>
      <rect x="480" y="972" width="300" height="120" rx="24"
            fill="#eff6ff" stroke="#60a5fa" stroke-width="2"
            filter="url(#softShadow)"/>
      <rect x="480" y="972" width="300" height="12" rx="24"
            fill="#2563eb" opacity="0.95"/>
      <rect x="480" y="984" width="300" height="18"
            fill="#2563eb" opacity="0.08"/>
      <text x="502" y="1018" font-size="22" font-weight="700" fill="#0f172a">pricing_agent</text><text x="502" y="1052" font-size="17" font-weight="500" fill="#475569"><tspan x="502" dy="0">nightly rate recommendation</tspan><tspan x="502" dy="23">comp + market signal blend</tspan></text>
    </g>
    
    <g>
      <rect x="480" y="1192" width="300" height="120" rx="24"
            fill="#eff6ff" stroke="#60a5fa" stroke-width="2"
            filter="url(#softShadow)"/>
      <rect x="480" y="1192" width="300" height="12" rx="24"
            fill="#2563eb" opacity="0.95"/>
      <rect x="480" y="1204" width="300" height="18"
            fill="#2563eb" opacity="0.08"/>
      <text x="502" y="1238" font-size="22" font-weight="700" fill="#0f172a">mail_agent</text><text x="502" y="1272" font-size="17" font-weight="500" fill="#475569"><tspan x="502" dy="0">inbox triage + drafts</tspan><tspan x="502" dy="23">human-in-the-loop send flow</tspan></text>
    </g>
    
    <g>
      <rect x="918" y="312" width="328" height="120" rx="24"
            fill="#f8fafc" stroke="#cbd5e1" stroke-width="2"
            filter="url(#softShadow)"/>
      <rect x="918" y="312" width="328" height="12" rx="24"
            fill="#475569" opacity="0.95"/>
      <rect x="918" y="324" width="328" height="18"
            fill="#475569" opacity="0.08"/>
      <text x="940" y="358" font-size="22" font-weight="700" fill="#0f172a">Pinecone</text><text x="940" y="392" font-size="17" font-weight="500" fill="#475569"><tspan x="940" dy="0">review embeddings</tspan><tspan x="940" dy="23">web quarantine namespace</tspan></text>
    </g>
    
    <g>
      <rect x="918" y="532" width="328" height="120" rx="24"
            fill="#f0fdfa" stroke="#5eead4" stroke-width="2"
            filter="url(#softShadow)"/>
      <rect x="918" y="532" width="328" height="12" rx="24"
            fill="#0f766e" opacity="0.95"/>
      <rect x="918" y="544" width="328" height="18"
            fill="#0f766e" opacity="0.08"/>
      <text x="940" y="578" font-size="22" font-weight="700" fill="#134e4a">External Market APIs</text><text x="940" y="612" font-size="17" font-weight="500" fill="#475569"><tspan x="940" dy="0">Open-Meteo + Ticketmaster</tspan><tspan x="940" dy="23">Nager.Date holidays</tspan></text>
    </g>
    
    <g>
      <rect x="918" y="752" width="328" height="120" rx="24"
            fill="#f8fafc" stroke="#cbd5e1" stroke-width="2"
            filter="url(#softShadow)"/>
      <rect x="918" y="752" width="328" height="12" rx="24"
            fill="#475569" opacity="0.95"/>
      <rect x="918" y="764" width="328" height="18"
            fill="#475569" opacity="0.08"/>
      <text x="940" y="798" font-size="22" font-weight="700" fill="#0f172a">Supabase Listings</text><text x="940" y="832" font-size="17" font-weight="500" fill="#475569"><tspan x="940" dy="0">large_dataset_table</tspan><tspan x="940" dy="23">benchmark + pricing inputs</tspan></text>
    </g>
    
    <g>
      <rect x="918" y="1192" width="328" height="120" rx="24"
            fill="#f0fdfa" stroke="#5eead4" stroke-width="2"
            filter="url(#softShadow)"/>
      <rect x="918" y="1192" width="328" height="12" rx="24"
            fill="#0f766e" opacity="0.95"/>
      <rect x="918" y="1204" width="328" height="18"
            fill="#0f766e" opacity="0.08"/>
      <text x="940" y="1238" font-size="22" font-weight="700" fill="#134e4a">Gmail API</text><text x="940" y="1272" font-size="17" font-weight="500" fill="#475569"><tspan x="940" dy="0">OAuth2 inbox fetch + send</tspan><tspan x="940" dy="23">push notifications</tspan></text>
    </g>
    
    <g>
      <rect x="480" y="1384" width="300" height="120" rx="24"
            fill="#ffffff" stroke="#cbd5e1" stroke-width="2"
            filter="url(#softShadow)"/>
      <rect x="480" y="1384" width="300" height="12" rx="24"
            fill="#94a3b8" opacity="0.95"/>
      <rect x="480" y="1396" width="300" height="18"
            fill="#94a3b8" opacity="0.08"/>
      <text x="502" y="1430" font-size="22" font-weight="700" fill="#0f172a">LLM Gateway</text><text x="502" y="1464" font-size="17" font-weight="500" fill="#475569"><tspan x="502" dy="0">Azure OpenAI compatible</tspan><tspan x="502" dy="23">shared by reviews / analysis / pricing / mail</tspan></text>
    </g>
    
    <g>
      <rect x="918" y="1384" width="328" height="120" rx="24"
            fill="#ecfdf5" stroke="#4ade80" stroke-width="2"
            filter="url(#softShadow)"/>
      <rect x="918" y="1384" width="328" height="12" rx="24"
            fill="#16a34a" opacity="0.95"/>
      <rect x="918" y="1396" width="328" height="18"
            fill="#16a34a" opacity="0.08"/>
      <text x="940" y="1430" font-size="22" font-weight="700" fill="#14532d">Automation &amp; Outputs</text><text x="940" y="1464" font-size="17" font-weight="500" fill="#475569"><tspan x="940" dy="0">scheduler, alerts inbox, SSE</tspan><tspan x="940" dy="23">traceable JSON response steps</tspan></text>
    </g>
    
</svg>
